<?xml version="1.0" encoding="utf-8"?>
<!-- Generator: Adobe Illustrator 27.5.0, SVG Export Plug-In . SVG Version: 6.00 Build 0)  -->
<svg version="1.1" xmlns="http://www.w3.org/2000/svg" xmlns:xlink="http://www.w3.org/1999/xlink" x="0px" y="0px"
	 viewBox="0 0 750 500" style="enable-background:new 0 0 750 500;" xml:space="preserve">
<g id="BACKGROUND">
	<rect style="fill:#FFFFFF;" width="750" height="500"/>
</g>
<g id="OBJECTS">
	<g>
		<g>
			<g>
				<path style="fill:#B9F3FF;" d="M537.839,473H177.54c-35.347,0.094-71.146-24.646-88.093-55.666
					c-16.947-31.02-15.469-71.262,3.708-100.955c14.554-22.535,38.915-40.734,42.067-67.375
					c2.267-19.161-7.314-37.442-12.461-56.038c-10.389-37.529-1.819-79.802,22.364-110.322s63.378-48.527,102.288-46.993
					c53.686,2.117,102.165,38.551,155.884,37.546C465.51,72.033,520.68,20.8,582.529,27.626
					c31.393,3.465,60.576,23.031,75.703,50.756c15.127,27.725,15.786,62.854,1.709,91.127c-8.075,16.218-20.615,30.222-26.33,47.415
					c-12.401,37.307,10.192,76.388,14.976,115.41c3.895,31.773-4.7,64.91-23.548,90.784C606.193,448.992,569.849,473,537.839,473z"
					/>
				<path style="fill:#96E4FF;" d="M526.795,366.996c-21.856,9.116-38.718,26.871-57.836,40.846
					c-19.118,13.975-43.918,24.555-66.147,16.388c-19.669-7.226-32.925-27.665-53.332-32.422
					c-17.638-4.112-35.558,4.666-50.935,14.236c-15.377,9.57-31.112,20.577-49.199,21.511c-24.32,1.256-45.434-15.87-68.911-22.342
					c-29.24-8.061-62.487,2.552-82.467,25.167c18.818,24.625,49.354,42.699,79.571,42.618h360.299
					c32.011,0,68.354-24.007,87.202-49.881c18.848-25.874,27.443-59.011,23.548-90.784c-0.185-1.512-0.406-3.024-0.641-4.536
					c-15.406,11.932-33.318,20.639-52.281,25.143C572.816,358.369,548.471,357.955,526.795,366.996z"/>
			</g>
			<g>
				<g>
					<rect x="152.784" y="109.397" style="fill:#96E4FF;" width="224.956" height="236.594"/>
					
						<rect x="157.728" y="125.979" transform="matrix(-1.836970e-16 1 -1 -1.836970e-16 492.9555 -37.5681)" style="fill:#5BA8FF;" width="215.067" height="203.429"/>
					<rect x="358.904" y="120.16" style="fill:#6BC5FF;" width="8.073" height="215.067"/>
					<rect x="144.711" y="109.397" style="fill:#6BC5FF;" width="8.073" height="236.594"/>
					<rect x="163.547" y="120.16" style="fill:#D1F3FF;" width="195.357" height="46.754"/>
				</g>
				<g>
					<rect x="520.087" y="109.397" style="fill:#96E4FF;" width="96.871" height="73.516"/>
					
						<rect x="542.528" y="108.482" transform="matrix(-1.836970e-16 1 -1 -1.836970e-16 714.6768 -422.3678)" style="fill:#5BA8FF;" width="51.989" height="75.344"/>
					<rect x="598.122" y="120.16" style="fill:#6BC5FF;" width="8.073" height="51.989"/>
					<rect x="512.014" y="109.397" style="fill:#6BC5FF;" width="8.073" height="73.516"/>
				</g>
				<g>
					<rect x="520.087" y="206.89" style="fill:#96E4FF;" width="96.871" height="73.516"/>
					
						<rect x="542.528" y="205.976" transform="matrix(-1.836970e-16 1 -1 -1.836970e-16 812.1707 -324.874)" style="fill:#5BA8FF;" width="51.989" height="75.344"/>
					<rect x="598.122" y="217.654" style="fill:#6BC5FF;" width="8.073" height="51.989"/>
					<rect x="512.014" y="206.89" style="fill:#6BC5FF;" width="8.073" height="73.516"/>
				</g>
			</g>
		</g>
		<g>
			<g>
				<g>
					<path style="fill:#56438C;" d="M206.491,464.223c-15.879,5.622-33.236,7.006-49.805,3.974
						c-27.37-5.01-51.504-21.702-70.347-42.177c-18.842-20.474-33.028-44.709-47.061-68.736
						c56.146-6.087,115.477,15.478,154.807,56.007c5.901,6.081,11.47,12.696,14.803,20.487
						C212.222,441.567,209.958,456.491,206.491,464.223z"/>
					<path style="fill:#6C6FC3;" d="M205.184,459.555c-19.26-17.173-39.712-32.782-61.198-46.789
						c-5.67-12.217-18.454-28.165-18.584-28.326c-0.343-0.427-0.962-0.491-1.394-0.151c-0.427,0.343-0.495,0.967-0.151,1.394
						c0.117,0.146,10.809,13.486,16.858,24.956c-9.831-6.302-19.879-12.264-30.13-17.884c-2.804-8.479-10.956-16.759-11.307-17.113
						c-0.385-0.388-1.014-0.39-1.402-0.005c-0.389,0.385-0.391,1.014-0.005,1.402c0.075,0.076,6.841,6.945,10.036,14.267
						c-13.611-7.356-27.563-14.129-41.854-20.255c-0.501-0.214-1.086,0.017-1.302,0.521c-0.216,0.503,0.017,1.086,0.521,1.302
						c15.055,6.453,29.737,13.618,44.032,21.441c0.001,0.001,0.002,0.001,0.004,0.002c0.178,0.098,0.358,0.192,0.537,0.29
						c-5.66-0.369-15.418-0.382-24.584,2.635c-0.524,0.17-0.802,0.732-0.632,1.252c0.171,0.52,0.732,0.803,1.252,0.632
						c12.513-4.117,26.646-2.329,28.317-2.096c16.196,9.096,31.871,19.065,46.976,29.876c-12.324-1.806-31.573-0.036-47.722,7.254
						c-0.491,0.224-0.721,0.812-0.496,1.312c0.226,0.499,0.813,0.721,1.312,0.496c17.795-8.033,39.378-9.227,50.764-6.282
						c13.412,9.79,26.374,20.24,38.832,31.348c0.342,0.305,0.837,0.33,1.203,0.09c0.071-0.047,0.138-0.103,0.198-0.17
						C205.629,460.547,205.593,459.92,205.184,459.555z"/>
					<path style="opacity:0.4;fill:#422C4F;" d="M137.309,452.594c16.417,9.706,35.791,13.499,54.859,13.84
						c2.416,0.043,4.83,0.033,7.243-0.022c2.386-0.642,4.75-1.364,7.08-2.189c3.467-7.732,5.731-22.656,2.398-30.446
						c-3.333-7.791-8.902-14.406-14.803-20.487c-29.826-30.734-71.155-50.549-113.873-55.683
						c3.947,16.234,8.701,32.278,15.925,47.307C105.368,424.118,118.968,441.75,137.309,452.594z"/>
				</g>
				<g>
					<path style="fill:#6C6FC3;" d="M186.695,466.643c-18.475-4.381-35.76-13.679-49.599-26.679
						c-22.86-21.475-35.515-52.036-40.846-82.944c-5.331-30.909-3.953-62.532-2.559-93.866
						c56.897,28.553,99.908,85.243,112.386,147.668c1.872,9.366,3.103,19.035,1.498,28.451
						C205.971,448.688,194.705,461.439,186.695,466.643z"/>
					<path style="fill:#56438C;" d="M183.514,450.242c-7.283-27.048-16.579-53.385-27.766-78.881
						c2.114-14.467-0.016-36.553-0.038-36.776c-0.058-0.592-0.582-1.017-1.176-0.966c-0.592,0.058-1.024,0.584-0.966,1.176
						c0.02,0.202,1.8,18.675,0.474,32.689c-5.182-11.569-10.764-22.958-16.733-34.156c2.494-9.368,0.013-21.735-0.096-22.265
						c-0.119-0.581-0.689-0.956-1.27-0.838c-0.582,0.119-0.958,0.688-0.838,1.271c0.023,0.114,2.085,10.375,0.633,18.925
						c-7.989-14.774-16.634-29.22-25.972-43.28c-0.328-0.493-0.997-0.63-1.492-0.301c-0.495,0.329-0.63,0.996-0.301,1.492
						c9.837,14.811,18.912,30.049,27.245,45.653c0.001,0.001,0.001,0.003,0.002,0.004c0.104,0.195,0.211,0.388,0.315,0.583
						c-4.921-3.701-13.777-9.513-23.895-12.223c-0.577-0.158-1.164,0.188-1.318,0.761c-0.154,0.574,0.187,1.165,0.761,1.318
						c13.813,3.7,25.586,13.727,26.965,14.932c9.303,17.891,17.612,36.264,24.904,55.064c-10.119-8.967-28.655-18.804-47.657-21.785
						c-0.579-0.088-1.138,0.309-1.23,0.897c-0.092,0.588,0.309,1.138,0.897,1.231c20.939,3.284,41.252,15.031,49.842,24.476
						c6.361,16.867,11.921,34.063,16.632,51.559c0.13,0.48,0.564,0.797,1.039,0.797c0.092,0,0.187-0.012,0.281-0.037
						C183.329,451.407,183.669,450.816,183.514,450.242z"/>
				</g>
			</g>
			<g>
				<g>
					<path style="fill:#A34262;" d="M543.509,464.223c15.879,5.622,33.236,7.006,49.805,3.974
						c27.37-5.01,51.504-21.702,70.347-42.177c18.842-20.474,33.028-44.709,47.061-68.736
						c-56.146-6.087-115.477,15.478-154.807,56.007c-5.901,6.081-11.47,12.696-14.803,20.487
						C537.778,441.567,540.042,456.491,543.509,464.223z"/>
					<path style="fill:#CC6164;" d="M544.816,459.555c19.26-17.173,39.712-32.782,61.198-46.789
						c5.67-12.217,18.454-28.165,18.584-28.326c0.343-0.427,0.962-0.491,1.394-0.151c0.427,0.343,0.495,0.967,0.151,1.394
						c-0.117,0.146-10.809,13.486-16.858,24.956c9.831-6.302,19.879-12.264,30.13-17.884c2.804-8.479,10.956-16.759,11.307-17.113
						c0.385-0.388,1.014-0.39,1.402-0.005c0.389,0.385,0.391,1.014,0.005,1.402c-0.075,0.076-6.841,6.945-10.036,14.267
						c13.611-7.356,27.563-14.129,41.854-20.255c0.502-0.214,1.086,0.017,1.302,0.521c0.216,0.503-0.017,1.086-0.521,1.302
						c-15.055,6.453-29.737,13.618-44.032,21.441c-0.001,0.001-0.002,0.001-0.004,0.002c-0.178,0.098-0.358,0.192-0.537,0.29
						c5.66-0.369,15.418-0.382,24.584,2.635c0.524,0.17,0.802,0.732,0.632,1.252c-0.171,0.52-0.732,0.803-1.252,0.632
						c-12.513-4.117-26.646-2.329-28.317-2.096c-16.196,9.096-31.871,19.065-46.976,29.876c12.323-1.806,31.573-0.036,47.722,7.254
						c0.491,0.224,0.721,0.812,0.496,1.312c-0.226,0.499-0.813,0.721-1.312,0.496c-17.795-8.033-39.378-9.227-50.764-6.282
						c-13.412,9.79-26.374,20.24-38.832,31.348c-0.342,0.305-0.837,0.33-1.203,0.09c-0.071-0.047-0.138-0.103-0.198-0.17
						C544.371,460.547,544.407,459.92,544.816,459.555z"/>
					<path style="opacity:0.4;fill:#422C4F;" d="M612.69,452.594c-16.417,9.706-35.79,13.499-54.859,13.84
						c-2.416,0.043-4.83,0.033-7.243-0.022c-2.386-0.642-4.75-1.364-7.08-2.189c-3.467-7.732-5.731-22.656-2.398-30.446
						c3.333-7.791,8.902-14.406,14.803-20.487c29.826-30.734,71.155-50.549,113.874-55.683
						c-3.947,16.234-8.701,32.278-15.925,47.307C644.633,424.118,631.032,441.75,612.69,452.594z"/>
				</g>
				<g>
					<path style="fill:#CC6164;" d="M563.305,466.643c18.475-4.381,35.76-13.679,49.599-26.679
						c22.86-21.475,35.515-52.036,40.846-82.944c5.331-30.909,3.953-62.532,2.559-93.866
						c-56.897,28.553-99.908,85.243-112.386,147.668c-1.872,9.366-3.103,19.035-1.498,28.451
						C544.029,448.688,555.295,461.439,563.305,466.643z"/>
					<path style="fill:#A34262;" d="M566.486,450.242c7.283-27.048,16.579-53.385,27.766-78.881
						c-2.114-14.467,0.016-36.553,0.038-36.776c0.058-0.592,0.582-1.017,1.176-0.966c0.592,0.058,1.024,0.584,0.966,1.176
						c-0.02,0.202-1.8,18.675-0.474,32.689c5.182-11.569,10.764-22.958,16.733-34.156c-2.494-9.368-0.013-21.735,0.096-22.265
						c0.119-0.581,0.689-0.956,1.27-0.838c0.582,0.119,0.958,0.688,0.838,1.271c-0.023,0.114-2.085,10.375-0.633,18.925
						c7.989-14.774,16.634-29.22,25.972-43.28c0.328-0.493,0.997-0.63,1.492-0.301c0.495,0.329,0.63,0.996,0.301,1.492
						c-9.837,14.811-18.912,30.049-27.245,45.653c-0.001,0.001-0.001,0.003-0.002,0.004c-0.104,0.195-0.211,0.388-0.315,0.583
						c4.921-3.701,13.777-9.513,23.895-12.223c0.577-0.158,1.164,0.188,1.318,0.761c0.154,0.574-0.187,1.165-0.761,1.318
						c-13.813,3.7-25.586,13.727-26.966,14.932c-9.303,17.891-17.612,36.264-24.904,55.064
						c10.119-8.967,28.655-18.804,47.657-21.785c0.579-0.088,1.138,0.309,1.23,0.897c0.092,0.588-0.309,1.138-0.897,1.231
						c-20.939,3.284-41.252,15.031-49.842,24.476c-6.361,16.867-11.921,34.063-16.632,51.559c-0.13,0.48-0.564,0.797-1.039,0.797
						c-0.093,0-0.187-0.012-0.281-0.037C566.671,451.407,566.331,450.816,566.486,450.242z"/>
				</g>
			</g>
		</g>
		<g>
			<g>
				<path style="fill:#984058;" d="M583.322,337.38H463.13L440.527,473h52.382l25.51-86.825L527.711,473h50.229l8.713-87.694
					C588.248,369.257,587.122,353.054,583.322,337.38L583.322,337.38z"/>
				<path style="fill:#472948;" d="M518.419,386.174l-29.815-11.122l0.665,1.615c3.1,7.529,9.87,12.922,17.902,14.261l0,0
					l-11.719,73.417L518.419,386.174z"/>
				<polygon style="opacity:0.4;fill:#422C4F;" points="583.322,337.38 463.13,337.38 452.771,399.532 504.451,380.964 
					507.284,342.02 				"/>
			</g>
			<g>
				<path style="fill:#6A3649;" d="M548.177,208.557c10.176-33.764,12.887-69.756,7.883-104.663
					c-1.305-9.105-3.165-18.25-7.169-26.531c-4.004-8.281-10.362-15.701-18.749-19.479s-20.499-4.439-27.748,1.223
					c-8.512-6.247-20.713-6.096-29.994-1.063c-9.281,5.033-15.78,14.284-19.18,24.28c-3.4,9.996-3.968,20.739-3.607,31.291
					c0.361,10.552,1.619,21.065,1.749,31.622c0.391,31.681-9.719,63.404-28.37,89.017
					C465.092,235.402,510.108,226.567,548.177,208.557z"/>
				<path style="fill:#422C4F;" d="M537.69,129.904c-8.607,5.728-18.186,10.019-27.882,13.606
					c-12.9-3.639-24.178-10.311-34.747-18.554c2.073,37.116-5.282,74.697-21.014,108.368c24.461-2.082,49.09-7.33,72.066-15.616
					C534.744,189.353,538.676,159.545,537.69,129.904z"/>
			</g>
			<g>
				<path style="fill:#6CA8BF;" d="M560.719,177.531h-86.927l-18.75,48.206c-3.164,8.135-1.325,17.367,4.714,23.669l0,0
					c4.219,4.402,6.466,10.332,6.223,16.425l-2.849,71.55h120.192c-3.947-32.649-33.725-43.413-25.115-95.436
					C566.818,189.921,560.719,177.531,560.719,177.531z"/>
				<path style="fill:#468097;" d="M521.432,254.322h-53.957c3.96,0,7.025-3.737,10.52-5.6c3.639-1.94,7.678-3.941,11.707-3.063
					c3.766,0.821,6.631,4.003,10.336,5.068c3.522,1.013,7.258-0.014,10.895-0.468C514.57,249.806,519.206,251.411,521.432,254.322z"
					/>
				<path style="fill:#468097;" d="M542.086,194.899l16.417,80.771l-4.072,29.753c-1.024,7.483-5.146,14.191-11.359,18.486
					l-19.487,13.471h-24.218v-40.632l14.574-7.803l10.207-34.623l-2.768-4.371L542.086,194.899z"/>
			</g>
			<g>
				<path style="fill:#F2C9AD;" d="M523.721,128.978c0.066-2.979,0.836-5.993,2.539-8.438c1.703-2.445,4.4-4.265,7.365-4.566
					c2.965-0.301,6.126,1.071,7.646,3.634c1.485,2.503,1.279,5.647,0.713,8.502c-0.509,2.568-1.29,5.127-2.75,7.3
					c-1.459,2.173-3.669,3.936-6.241,4.419c-2.333,0.438-5.821-0.504-7.483-2.343C523.702,135.486,523.665,131.472,523.721,128.978z
					"/>
				<path style="fill:#EBA58E;" d="M535.77,119.972c-2.5,0.705-4.691,2.443-5.945,4.717c-1.254,2.274-1.556,5.055-0.818,7.545
					c0.319,1.076,0.914,2.184,1.961,2.59c1.171,0.454,2.533-0.151,3.363-1.093c1.151-1.307,1.51-3.262,0.898-4.892
					c-0.612-1.631-2.168-2.867-3.894-3.094C531.792,123.349,533.626,121.136,535.77,119.972z"/>
			</g>
			<g>
				<path style="fill:#6CA8BF;" d="M473.792,177.531L473.792,177.531c-10.331,0-19.611,6.316-23.4,15.927l-11.48,29.113l16.13,3.167
					L473.792,177.531z"/>
				<polygon style="fill:#468097;" points="455.042,225.737 467.475,193.773 448.579,224.468 				"/>
			</g>
			<path style="fill:#F2C9AD;" d="M500.443,160.052v17.479h-6.297l1.794,6.851c1.622,6.196,7.221,10.517,13.626,10.517h0
				c5.411,0,10.345-3.1,12.692-7.977l4.52-9.391l-1.501-38.602L500.443,160.052z"/>
			<path style="fill:#EBA58E;" d="M525.276,138.929l-24.833,21.123v15.742c12.243,0,16.511-12.834,25.199-27.448L525.276,138.929z"
				/>
			<g>
				<g>
					<path style="fill:#495375;" d="M420.973,264.996h62.787c1.783,0,3.229,1.446,3.229,3.229v4.216
						c0,1.783-1.446,3.229-3.229,3.229h-62.787c-1.783,0-3.229-1.446-3.229-3.229v-4.216
						C417.744,266.441,419.19,264.996,420.973,264.996z"/>
					<path style="fill:#797C99;" d="M433.441,264.996h-71.308c-1.783,0-3.229,1.446-3.229,3.229v4.216
						c0,1.783,1.446,3.229,3.229,3.229h71.308c1.783,0,3.229-1.446,3.229-3.229v-4.216
						C436.67,266.441,435.224,264.996,433.441,264.996z"/>
				</g>
				<g>
					<path style="fill:#E8916A;" d="M417.296,254.322h60.544c1.783,0,3.229,1.446,3.229,3.229v4.216
						c0,1.783-1.446,3.229-3.229,3.229h-60.544c-1.783,0-3.229-1.446-3.229-3.229v-4.216
						C414.067,255.768,415.512,254.322,417.296,254.322z"/>
					<path style="fill:#F7DD8C;" d="M429.763,254.322h-62.787c-1.783,0-3.229,1.446-3.229,3.229v4.216
						c0,1.783,1.446,3.229,3.229,3.229h62.787c1.783,0,3.229-1.446,3.229-3.229v-4.216
						C432.992,255.768,431.547,254.322,429.763,254.322z"/>
				</g>
				<g>
					<path style="fill:#A34262;" d="M414.946,243.648h58.846c1.783,0,3.229,1.446,3.229,3.229v4.216
						c0,1.783-1.446,3.229-3.229,3.229h-58.846c-1.783,0-3.229-1.446-3.229-3.229v-4.216
						C411.717,245.094,413.163,243.648,414.946,243.648z"/>
					<path style="fill:#CC6164;" d="M427.413,243.648h-55.055c-1.783,0-3.229,1.446-3.229,3.229v4.216
						c0,1.783,1.446,3.229,3.229,3.229h55.055c1.783,0,3.229-1.446,3.229-3.229v-4.216
						C430.642,245.094,429.197,243.648,427.413,243.648z"/>
				</g>
				<g>
					<path style="fill:#56438C;" d="M412.177,232.975h54.284c4.552,0,5.998,1.446,5.998,3.229v4.216
						c0,1.783-1.446,3.229-5.998,3.229h-54.284c0.986,0-0.46-1.446-0.46-3.229v-4.216
						C411.717,234.42,413.163,232.975,412.177,232.975z"/>
					<path style="fill:#6C6FC3;" d="M424.645,232.975h-46.725c-1.783,0-3.229,1.446-3.229,3.229v4.216
						c0,1.783,1.446,3.229,3.229,3.229h46.725c1.783,0,3.229-1.446,3.229-3.229v-4.216
						C427.874,234.42,426.428,232.975,424.645,232.975z"/>
				</g>
				<g>
					<rect x="346.526" y="275.67" style="fill:#DE9547;" width="96.153" height="101.535"/>
					
						<rect x="442.68" y="275.67" transform="matrix(-1 -1.224647e-16 1.224647e-16 -1 942.0466 652.8745)" style="fill:#BD704D;" width="56.688" height="101.535"/>
					<path style="opacity:0.2;fill:#422C4F;" d="M442.68,275.67v101.535h56.688v-31.214l-30.005-11.512
						c-8.159-3.13-14.289-10.027-16.441-18.497L442.68,275.67z"/>
					
						<rect x="352.849" y="292.91" transform="matrix(0.9978 -0.0659 0.0659 0.9978 -19.4154 26.5886)" style="fill:#FBEED1;" width="81.264" height="29.599"/>
					
						<text transform="matrix(0.9978 -0.0659 0.0659 0.9978 343.1461 320.5808)" style="fill:#6CA8BC; font-family:'BebasNeue'; font-size:28.2524px;">DONATE</text>
					<rect x="384.916" y="284.998" style="opacity:0.6;fill:#FFFFFF;" width="11.391" height="10.046"/>
				</g>
				<g>
					<path style="fill:#A64F5A;" d="M401.282,229.028l14.364-30.431c1.261-2.671,4.439-3.827,7.121-2.589l8.969,4.138l7.713-3.891
						c2.698-1.361,5.987-0.235,7.285,2.495l14.734,30.996l-15.559,3.229L401.282,229.028z"/>
					<path style="fill:#422C4F;" d="M431.737,200.146l-13.091,6.604C418.193,199.877,421.601,198.98,431.737,200.146z"/>
					<polygon style="fill:#422C4F;" points="405.516,220.058 401.282,229.028 445.909,232.975 461.468,229.745 456.863,220.058 
											"/>
					<path style="fill:#A64F5A;" d="M483.581,232.975h-98.665c11.422-10.079,28.825-13.363,42.961-7.686
						c5.694,2.287,11.079,5.892,17.206,6.222c6.576,0.354,12.738-3.145,19.274-3.954
						C470.57,226.788,478.651,229.116,483.581,232.975z"/>
				</g>
			</g>
			<g>
				<path style="fill:#F2C9AD;" d="M461.468,115.578l6.402,24.169c2.551,9.63,8.405,18.057,16.539,23.808l1.371,0.969
					c4.639,3.28,10.405,4.549,15.993,3.52l0,0c5.217-0.961,9.881-3.853,13.06-8.1l8.816-11.774c2.721-3.635,3.75-8.264,2.823-12.709
					l0,0l0,0c-4.515-2.465-7.576-6.944-8.23-12.046l-0.798-6.223l0,0c-10.912-3.372-19.737-11.459-24.046-22.036l-1.148-2.819
					C484.047,107.792,468.641,114.837,461.468,115.578z"/>
				<path style="fill:#6A3649;" d="M508.612,117.523l-17.328-2.194c1.93-1.357,4.246-2.579,6.601-2.725
					c1.935-0.119,3.86,0.469,5.578,1.366S507.084,116.331,508.612,117.523z"/>
				<path style="fill:#422C4F;" d="M500.949,123.964c0.006,1.927-1.055,3.493-2.371,3.497c-1.316,0.004-2.387-1.555-2.393-3.482
					c-0.006-1.927,1.055-3.493,2.371-3.497C499.871,120.478,500.943,122.037,500.949,123.964z"/>
				<path style="fill:#6A3649;" d="M465.223,118.119l11.862-2.287c-1.33-1.347-2.924-2.557-4.538-2.689
					c-1.326-0.109-2.643,0.49-3.815,1.396C467.559,115.446,466.264,116.919,465.223,118.119z"/>
				<path style="fill:#422C4F;" d="M470.527,124.443c0,1.927,0.731,3.489,1.632,3.489c0.902,0,1.632-1.562,1.632-3.489
					c0-1.927-0.731-3.49-1.632-3.49C471.258,120.954,470.527,122.516,470.527,124.443z"/>
				<path style="fill:#EBA58E;" d="M488.243,142.101c-3.677-0.15-7.354-0.299-11.031-0.449c1.396,1.232,2.891,2.493,4.532,3.372
					C483.762,144.199,486.226,142.926,488.243,142.101z"/>
				<path style="fill:#FFFFFF;" d="M504.046,145.118c-7.018,2.269-14.035,4.537-21.053,6.806c1.262,2.141,3.397,3.912,5.784,4.603
					c2.387,0.691,5.034,0.436,7.245-0.698C499.878,153.849,502.212,149.046,504.046,145.118z"/>
				<g>
					<path style="fill:#EBA58E;" d="M481.309,123.42c-0.154,0-0.306-0.065-0.412-0.192l-3.4-4.044
						c-0.191-0.228-0.162-0.567,0.066-0.758c0.227-0.189,0.566-0.162,0.758,0.066l3.4,4.044c0.191,0.228,0.162,0.566-0.065,0.758
						C481.555,123.379,481.432,123.42,481.309,123.42z"/>
				</g>
				<g>
					<path style="fill:#EBA58E;" d="M477.249,142.244c-0.081,0-0.162-0.018-0.239-0.056c-0.266-0.132-0.375-0.455-0.244-0.721
						c2.15-4.345,5.865-13.607,5.903-13.7c0.11-0.276,0.427-0.41,0.699-0.3c0.276,0.111,0.41,0.424,0.299,0.7
						c-0.037,0.094-3.769,9.394-5.937,13.777C477.638,142.134,477.447,142.244,477.249,142.244z"/>
				</g>
			</g>
			<g>
				<g>
					<path style="fill:#F2C9AD;" d="M528.787,251.631l-9.687,40.184l-52.023,56.688c-8.604-5.326-17.437-8.323-22.536-9.762
						c-2.313-0.653-4.665,0.884-5.017,3.261l0,0c-0.253,1.71,0.615,3.386,2.163,4.154c3.501,1.738,9.573,4.992,11.936,7.728
						l-21.776,22.398c-1.776,1.827-1.558,4.795,0.466,6.343l0,0c1.385,1.059,3.277,1.166,4.772,0.268l5.595-3.357l11.435,2.998
						c4.319,1.132,8.908-0.262,11.867-3.605l14.549-16.435l57.394-43.926c6.415-4.909,11.081-11.75,13.312-19.514l10.558-36.75
						L528.787,251.631z"/>
					<polygon style="fill:#422C4F;" points="528.787,251.631 561.795,262.305 559.22,271.27 528.247,253.87 					"/>
				</g>
				<path style="fill:#6CA8BF;" d="M567.14,264.033l-41.864-13.537l17.986-59.487c3.081-10.189,13.944-15.846,24.059-12.527v0
					c9.127,2.995,14.572,12.343,12.675,21.759L567.14,264.033z"/>
			</g>
		</g>
		<g>
			<g>
				<polygon style="fill:#454F6B;" points="138.074,377.205 140.944,473 207.139,473 212.327,416.718 218.864,473 275.846,473 
					264.724,377.205 				"/>
				<polygon style="fill:#422C4F;" points="212.327,416.718 242.838,402.432 221.67,425.102 225.258,473 218.864,473 				"/>
				<polygon style="opacity:0.4;fill:#422C4F;" points="269.704,420.1 264.724,377.205 236.38,377.205 138.074,377.205 
					138.295,384.605 242.129,384.605 				"/>
			</g>
			<g>
				<g>
					<polygon style="fill:#CC6164;" points="275.846,208.577 303.831,254.322 275.846,287.509 255.754,262.754 264.724,208.577 
											"/>
					<path style="fill:#A34262;" d="M267.819,239.307c0.302-5.102,0.852-10.404-0.985-15.174c-0.835-2.167-2.141-4.096-3.728-5.79
						l-7.353,44.409l16.226,19.993C268.374,268.595,266.956,253.886,267.819,239.307z"/>
				</g>
				<path style="fill:#EBA58E;" d="M301.189,257.455l20.223,30.054l25.115,18.298v29.779l-37.702-20.288
					c-5.046-2.715-9.544-6.345-13.265-10.703l-17.166-20.105L301.189,257.455z"/>
				<polygon style="fill:#422C4F;" points="301.189,257.455 302.672,259.659 285.565,292.89 278.392,284.489 				"/>
			</g>
			<g>
				<path style="fill:#CC6164;" d="M213.732,183.866h-4.737c-15.229,0-29.325,8.165-36.779,21.446
					c-23.646,42.128-38.088,113.609-38.088,171.893h130.597c-7.893-74.627-4.305-137.055,11.122-168.628
					c-12.376-24.711-19.785-23.652-30.612-23.652C234.407,184.926,213.732,183.866,213.732,183.866z"/>
				<path style="fill:#A34262;" d="M258.266,348.502l3.309-10.41l-21.607-39.353l-5.113-29.707l2.96-1.973l-21.952-58.892
					l-42.859,12.107l12.03,69.659c3.088,17.882,10.527,34.731,21.66,49.061l29.685,38.211h28.344L258.266,348.502z"/>
			</g>
			<g>
				<path style="fill:#EBA58E;" d="M194.402,279.975l35.161-12.916l7.176,34.084l51.126,76.062
					c13.185,0.807,19.374,15.607,22.334,18.836h16.78c2.754,0,5.17,1.833,5.913,4.485l0,0h0c3.725,0,7.006,2.448,8.068,6.018
					l0.184,0.619h-3.767l1.435,4.126l-38.292,5.336c-3.396,0.473-6.789-0.884-8.922-3.568l-17.368-21.859l-62.623-69.981
					c-4.011-4.483-7.039-9.756-8.887-15.48L194.402,279.975z"/>
				<path style="fill:#EBA58E;" d="M281.676,389.852l10.382,16.201c1.222,1.906,2.899,3.478,4.881,4.573l17.431,9.633l0,0
					c1.652-4.878-0.294-10.25-4.688-12.937l-6.345-3.881c5.92-13.185-4.844-17.76-7.938-18.836L281.676,389.852z"/>
				<g>
					<path style="fill:#E78882;" d="M314.37,420.797c-0.09,0-0.18-0.022-0.26-0.067l-17.431-9.634
						c-2.052-1.133-3.807-2.777-5.074-4.753l-10.382-16.201c-0.16-0.25-0.088-0.583,0.163-0.743
						c0.249-0.162,0.582-0.088,0.743,0.163l10.382,16.201c1.171,1.826,2.792,3.345,4.688,4.392l16.85,9.313
						c1.227-4.494-0.626-9.226-4.648-11.686l-6.345-3.881c-0.231-0.142-0.321-0.433-0.21-0.68c1.916-4.267,2.213-7.996,0.883-11.082
						c-1.795-4.161-6.101-6.188-8.507-7.025c-0.281-0.098-0.429-0.405-0.332-0.685c0.098-0.282,0.406-0.427,0.685-0.332
						c2.574,0.896,7.185,3.076,9.142,7.616c1.408,3.266,1.172,7.138-0.699,11.514l5.944,3.636c4.64,2.838,6.662,8.418,4.917,13.569
						c-0.051,0.151-0.167,0.272-0.315,0.329C314.502,420.785,314.436,420.797,314.37,420.797z"/>
				</g>
				<g>
					<path style="fill:#E78882;" d="M335.428,407.665c-0.003,0-0.007,0-0.01,0l-17.246-0.323c-0.297-0.005-0.533-0.251-0.528-0.549
						c0.005-0.296,0.22-0.564,0.548-0.528l17.246,0.323c0.298,0.005,0.533,0.251,0.528,0.549
						C335.96,407.431,335.72,407.665,335.428,407.665z"/>
				</g>
				<g>
					<path style="fill:#E78882;" d="M317.374,401.781c-0.286,0-0.524-0.225-0.537-0.513c-0.014-0.297,0.216-0.549,0.513-0.562
						l14.175-0.655c0.298-0.044,0.549,0.216,0.562,0.512c0.014,0.298-0.216,0.549-0.513,0.562l-14.175,0.655
						C317.391,401.781,317.383,401.781,317.374,401.781z"/>
				</g>
				<polygon style="fill:#422C4F;" points="229.563,267.059 194.402,279.975 197.917,290.86 230.252,270.333 				"/>
				<path style="fill:#CC6164;" d="M232.798,265.87l-43.112,15.837l-16.682-61.434c-3.165-11.657,3.54-23.713,15.113-27.172h0
					c11.825-3.535,24.27,3.222,27.746,15.065L232.798,265.87z"/>
			</g>
			<g>
				<g>
					<path style="fill:#EBA58E;" d="M218.979,150.365c0,0-3.229,28.927-5.247,33.501c5.131,1.056,9.743,4.377,13.725,7.782
						c3.982,3.405,8.319,6.876,13.511,7.574c2.773,0.373,5.947-0.281,7.547-2.576c1.26-1.808,1.255-4.274,0.474-6.335
						c-0.781-2.061-2.238-3.788-3.755-5.385c1.327-7.517,4.294-23.259,4.294-23.259L218.979,150.365z"/>
					<path style="fill:#E78882;" d="M237.636,178.26c2.767,0.873,5.676,1.283,8.577,1.234c1.436-7.86,3.315-17.827,3.315-17.827
						l-30.548-11.302c0,0-0.244,2.186-0.639,5.441c1.164,4.409,2.782,8.643,5.412,12.345
						C227.126,172.9,232.08,176.507,237.636,178.26z"/>
				</g>
				<g>
					<path style="fill:#422C4F;" d="M274.709,93.967l4.007,31.507l2.275-7.26c2.591-8.27,1.773-17.233-2.275-24.896v0
						L274.709,93.967z"/>
					<g>
						<path style="fill:#EBA58E;" d="M245.553,172.43L245.553,172.43c-13.349,0-25.396-8.003-30.57-20.308l-3.269-7.775v-34.479
							c0-18.502,14.999-33.501,33.501-33.501l0,0c18.502,0,33.501,14.999,33.501,33.501v29.4
							C278.716,157.583,263.869,172.43,245.553,172.43z"/>
						<path style="fill:#422C4F;" d="M250.791,113.689c-5.171,2.89-10.342,5.781-15.514,8.671c0.961-2.233,2.236-4.557,3.733-6.472
							c1.496-1.916,3.596-3.48,6.004-3.814C246.766,111.831,249.341,112.676,250.791,113.689z"/>
						<path style="fill:#422C4F;" d="M251.942,126.272c0,2.16-1.25,3.911-2.792,3.911c-1.542,0-2.792-1.751-2.792-3.911
							c0-2.16,1.25-3.911,2.792-3.911C250.692,122.361,251.942,124.112,251.942,126.272z"/>
						<path style="fill:#422C4F;" d="M270.916,113.689c2.392,2.891,4.784,5.781,7.175,8.672c-0.444-2.233-1.034-4.557-1.726-6.473
							c-0.692-1.916-1.663-3.48-2.777-3.814C272.778,111.831,271.587,112.676,270.916,113.689z"/>
						<path style="fill:#422C4F;" d="M270.384,126.272c0,2.16,0.578,3.911,1.291,3.911c0.713,0,1.291-1.751,1.291-3.911
							c0-2.16-0.578-3.911-1.291-3.911C270.962,122.361,270.384,124.112,270.384,126.272z"/>
						<path style="fill:#E78882;" d="M269.209,141.644c-3.846-0.044-7.695,0.286-11.477,0.985c0.978,0.73,2.001,1.713,3.11,2.223
							c1.109,0.509,2.365,0.782,3.561,0.537C266.27,145.005,267.966,143.091,269.209,141.644z"/>
						<path style="fill:#FFFFFF;" d="M270.292,149.685c-7.998,1.57-15.996,3.139-23.994,4.708c2.034,1.443,3.702,3.276,5.993,4.259
							c2.292,0.984,4.871,1.474,7.3,0.909c2.238-0.521,4.201-1.904,5.78-3.573C266.949,154.319,269.066,151.628,270.292,149.685z"/>
					</g>
					<path style="fill:#422C4F;" d="M213.328,144.58l1.266-0.768c4.309-2.614,6.941-7.288,6.941-12.328v-2.78l0,0
						c7.783-6.842,12.243-16.703,12.243-27.065v-4.552h42.409l0,0c6.777-3.314,11.186-10.084,11.476-17.623l0.202-5.249
						c-3.329,1.703-7.191,1.742-10.607,0.221c-3.416-1.521-6.33-3.949-9.335-6.174c-6.313-4.676-13.305-8.602-20.925-10.512
						c-7.621-1.91-15.932-1.684-23.06,1.621c-7.128,3.305-12.878,9.913-14.201,17.657c-6.051,0.406-11.633,4.534-14.927,9.626
						c-3.294,5.092-4.571,11.284-4.593,17.348C190.158,120.067,199.534,136.342,213.328,144.58z"/>
					<g>
						<path style="fill:#EBA58E;" d="M215.562,137.563c-0.792-2.873-2.275-5.607-4.524-7.562c-2.249-1.955-5.309-3.061-8.257-2.628
							c-2.948,0.433-5.678,2.535-6.527,5.392c-0.829,2.79,0.14,5.788,1.386,8.418c1.121,2.365,2.504,4.656,4.45,6.407
							c1.946,1.751,4.519,2.92,7.132,2.76c2.369-0.145,5.521-1.911,6.684-4.1C217.169,143.869,216.225,139.967,215.562,137.563z"/>
						<path style="fill:#E78882;" d="M201.677,131.774c2.596,0.073,5.145,1.223,6.917,3.122c1.772,1.899,2.744,4.522,2.637,7.116
							c-0.046,1.122-0.353,2.341-1.268,2.991c-1.024,0.727-2.493,0.473-3.529-0.238c-1.436-0.986-2.261-2.794-2.066-4.524
							c0.195-1.731,1.402-3.31,3.02-3.952C206.359,134.077,204.04,132.379,201.677,131.774z"/>
					</g>
				</g>
			</g>
		</g>
	</g>
</g>
</svg>
