<?xml version="1.0" standalone="no"?>
<!DOCTYPE svg PUBLIC "-//W3C//DTD SVG 20010904//EN"
 "http://www.w3.org/TR/2001/REC-SVG-20010904/DTD/svg10.dtd">
<svg version="1.0" xmlns="http://www.w3.org/2000/svg"
 width="800.000000pt" height="800.000000pt" viewBox="0 0 800.000000 800.000000"
 preserveAspectRatio="xMidYMid meet">

<g transform="translate(0.000000,800.000000) scale(0.100000,-0.100000)"
fill="#000000" stroke="none">
<path d="M3630 7993 c-148 -13 -385 -51 -520 -84 -191 -46 -504 -145 -615
-194 -27 -13 -88 -39 -135 -60 -162 -70 -489 -249 -506 -276 -3 -5 842 -9
2148 -9 1857 0 2150 2 2138 14 -55 53 -485 275 -675 349 -237 91 -520 171
-750 212 -248 44 -285 47 -665 50 -206 1 -395 1 -420 -2z"/>
<path d="M1133 6791 c-28 -27 -81 -85 -119 -128 -38 -43 -71 -80 -74 -83 -40
-39 -210 -268 -210 -282 0 -5 355 -8 789 -8 l789 0 68 42 c513 313 1157 315
1669 6 l81 -48 1578 2 1578 3 -78 105 c-98 131 -227 284 -314 373 l-66 67
-2821 0 -2821 0 -49 -49z"/>
<path d="M438 5818 c-52 -101 -139 -300 -134 -305 3 -3 22 8 43 25 37 29 188
108 248 130 168 61 341 81 510 59 185 -24 324 -76 477 -177 51 -34 96 -62 100
-63 5 -1 23 34 41 78 41 97 79 174 121 240 18 28 36 56 40 63 6 9 -138 12
-703 12 l-711 0 -32 -62z"/>
<path d="M4550 5872 c0 -5 19 -38 42 -73 36 -56 90 -164 141 -282 l17 -37 62
51 c73 58 234 139 328 164 85 22 292 31 373 16 164 -31 297 -94 428 -203 l47
-38 861 0 c725 0 861 2 861 14 0 13 -8 33 -48 131 -9 22 -42 90 -73 150 l-55
110 -1492 3 c-821 1 -1492 -2 -1492 -6z"/>
<path d="M6180 5203 c0 -5 11 -40 24 -80 14 -39 28 -89 32 -110 9 -53 13 -57
38 -35 33 30 126 86 176 106 129 52 304 62 436 23 95 -27 197 -82 265 -143
l50 -44 342 2 c335 3 342 3 340 23 -1 24 -60 242 -68 256 -7 11 -1635 13
-1635 2z"/>
<path d="M7300 4772 c0 -4 4 -12 9 -17 5 -6 18 -39 29 -75 l20 -65 296 -3
c163 -1 296 1 296 6 0 12 -20 124 -26 145 -5 16 -29 17 -315 17 -170 0 -309
-4 -309 -8z"/>
<path d="M7 4043 c-2 -5 -1 -33 2 -63 l6 -55 3985 0 3985 0 8 49 c4 27 6 55 3
63 -5 11 -658 13 -3995 13 -2194 0 -3992 -3 -3994 -7z"/>
<path d="M60 3389 c0 -5 4 -29 9 -52 6 -23 12 -54 16 -69 l5 -28 1047 0 1048
0 -80 80 -80 80 -982 0 c-684 0 -983 -3 -983 -11z"/>
<path d="M1227 3082 c-1085 -2 -1097 -2 -1097 -22 0 -11 9 -48 20 -82 11 -35
26 -85 33 -113 l14 -50 1211 -5 1211 -5 61 -58 60 -57 2512 2 2511 3 24 65
c12 36 23 72 23 80 0 13 -297 15 -2622 13 l-2622 -3 -118 118 c-65 64 -120
117 -121 117 -1 0 -496 -1 -1100 -3z"/>
<path d="M300 2530 c0 -12 22 -62 111 -247 l68 -143 1385 0 c762 0 1386 4
1386 8 0 4 -20 28 -45 52 -25 24 -45 50 -45 57 0 11 411 13 2215 13 l2215 0
30 65 c16 35 30 67 30 70 0 3 11 28 25 57 14 28 25 58 25 65 0 11 -652 13
-3700 13 -2487 0 -3700 -3 -3700 -10z"/>
<path d="M3535 1878 c61 -62 118 -118 128 -126 9 -7 17 -17 17 -23 0 -5 -554
-9 -1465 -9 -806 0 -1465 -4 -1465 -8 0 -14 153 -218 181 -242 3 -3 32 -36 64
-75 32 -38 88 -100 124 -138 l66 -67 1503 -3 c826 -1 1502 0 1502 3 0 3 -86
92 -190 199 -104 106 -187 197 -184 202 3 5 715 9 1684 9 l1678 0 35 48 c31
42 202 298 221 330 6 9 -397 12 -2001 12 l-2008 0 110 -112z"/>
<path d="M4248 1155 c4 -9 118 -126 252 -260 134 -135 241 -247 238 -250 -3
-3 -642 -5 -1422 -5 -834 0 -1416 -4 -1416 -9 0 -11 124 -84 290 -169 288
-148 657 -279 960 -342 58 -12 108 -24 111 -26 9 -5 290 -44 399 -55 110 -11
568 -11 685 1 166 15 321 40 481 75 201 44 334 78 334 85 0 3 -90 98 -200 210
-109 113 -199 211 -200 218 0 9 143 12 684 12 l684 0 54 35 c29 19 58 38 64
43 5 5 39 29 75 53 116 79 361 282 438 363 l35 36 -1278 0 c-1149 0 -1276 -2
-1268 -15z"/>
</g>
</svg>
